# xmcd
#
# Track frame offsets:
# 150
# 17401
# 35698
# 57315
# 75319
# 96128
# 116534
#
# Disc length: 1799 seconds
#
#
# Revision: 0
# Processed by: cddbd v1.5.2PL0 Copyright (c) Steve Scherf et al.
# Submitted via: FreeRIP 2.93 
#
DISCID=49070507
DTITLE=Flatbed Ford - Hangups and Holdouts
DYEAR=2007
DGENRE=Rock and Roll
TTITLE0=Deep Blue
TTITLE1=Tellin' the Truth
TTITLE2=Stars Will Fade
TTITLE3=Tongue Twister
TTITLE4=Always the Same
TTITLE5=Hangups and Holdouts
TTITLE6=Revealed
EXTD=Josh Longo-Vocals\nColin Milne-Guitar\nRoy Nash-Bass\nSkotShaub-Drums\nwww.flatbedford.com\nroynashjr@hotmail.com
EXTT0=
EXTT1=
EXTT2=
EXTT3=
EXTT4=
EXTT5=
EXTT6=
PLAYORDER=
